<mxfile host="app.diagrams.net" modified="2024-01-26T01:57:59.161Z" agent="Mozilla/5.0 (Windows NT 10.0; Win64; x64) AppleWebKit/537.36 (KHTML, like Gecko) Chrome/120.0.0.0 Safari/537.36" etag="ZYp9jbPBvOfFtcyQ66M4" version="23.0.1" type="google">
  <diagram name="Page-1" id="4F24C8K59VNdjJXLkKde">
    <mxGraphModel dx="874" dy="468" grid="1" gridSize="10" guides="1" tooltips="1" connect="1" arrows="1" fold="1" page="1" pageScale="1" pageWidth="850" pageHeight="1100" math="0" shadow="0">
      <root>
        <mxCell id="0" />
        <mxCell id="1" parent="0" />
        <mxCell id="g4TBFu642CuOUHY3i4kS-2" style="edgeStyle=orthogonalEdgeStyle;rounded=0;orthogonalLoop=1;jettySize=auto;html=1;exitX=1;exitY=0.75;exitDx=0;exitDy=0;entryX=0;entryY=0;entryDx=0;entryDy=35;entryPerimeter=0;dashed=1;" parent="1" source="g4TBFu642CuOUHY3i4kS-3" target="g4TBFu642CuOUHY3i4kS-8" edge="1">
          <mxGeometry relative="1" as="geometry" />
        </mxCell>
        <mxCell id="g4TBFu642CuOUHY3i4kS-3" value="&lt;&lt;component&gt;&gt;&#xa;Finance" style="shape=module;align=left;spacingLeft=20;align=center;verticalAlign=middle;fillStyle=auto;horizontal=1;" parent="1" vertex="1">
          <mxGeometry x="120" y="270" width="150" height="60" as="geometry" />
        </mxCell>
        <mxCell id="g4TBFu642CuOUHY3i4kS-4" value="" style="ellipse;html=1;fillStyle=auto;" parent="1" vertex="1">
          <mxGeometry x="180" y="360" width="30" height="30" as="geometry" />
        </mxCell>
        <mxCell id="g4TBFu642CuOUHY3i4kS-5" value="" style="endArrow=open;html=1;rounded=0;align=center;verticalAlign=top;endFill=0;labelBackgroundColor=none;endSize=6;entryX=0.5;entryY=1;entryDx=0;entryDy=0;" parent="1" source="g4TBFu642CuOUHY3i4kS-4" target="g4TBFu642CuOUHY3i4kS-3" edge="1">
          <mxGeometry relative="1" as="geometry">
            <mxPoint x="180" y="290" as="targetPoint" />
          </mxGeometry>
        </mxCell>
        <mxCell id="g4TBFu642CuOUHY3i4kS-6" value="Manager" style="text;html=1;align=center;verticalAlign=middle;resizable=0;points=[];autosize=1;strokeColor=none;fillColor=none;" parent="1" vertex="1">
          <mxGeometry x="160" y="390" width="70" height="30" as="geometry" />
        </mxCell>
        <mxCell id="g4TBFu642CuOUHY3i4kS-7" style="edgeStyle=orthogonalEdgeStyle;rounded=0;orthogonalLoop=1;jettySize=auto;html=1;exitX=0;exitY=0;exitDx=0;exitDy=15;exitPerimeter=0;dashed=1;" parent="1" source="g4TBFu642CuOUHY3i4kS-8" edge="1">
          <mxGeometry relative="1" as="geometry">
            <mxPoint x="420" y="485.0526315789475" as="targetPoint" />
          </mxGeometry>
        </mxCell>
        <mxCell id="g4TBFu642CuOUHY3i4kS-8" value="&lt;&lt;component&gt;&gt;&#xa;amountOfStock" style="shape=module;align=left;spacingLeft=20;align=center;verticalAlign=middle;fillStyle=auto;horizontal=1;" parent="1" vertex="1">
          <mxGeometry x="450" y="470" width="150" height="60" as="geometry" />
        </mxCell>
        <mxCell id="g4TBFu642CuOUHY3i4kS-10" style="edgeStyle=orthogonalEdgeStyle;rounded=0;orthogonalLoop=1;jettySize=auto;html=1;exitX=0;exitY=0;exitDx=0;exitDy=35;exitPerimeter=0;dashed=1;entryX=0;entryY=0;entryDx=0;entryDy=35;entryPerimeter=0;" parent="1" target="g4TBFu642CuOUHY3i4kS-11" edge="1">
          <mxGeometry relative="1" as="geometry">
            <mxPoint x="360" y="385.0526315789475" as="sourcePoint" />
          </mxGeometry>
        </mxCell>
        <mxCell id="g4TBFu642CuOUHY3i4kS-56" style="edgeStyle=orthogonalEdgeStyle;rounded=0;orthogonalLoop=1;jettySize=auto;html=1;entryX=1;entryY=0.75;entryDx=0;entryDy=0;exitX=1;exitY=0.5;exitDx=0;exitDy=0;" parent="1" source="g4TBFu642CuOUHY3i4kS-11" target="g4TBFu642CuOUHY3i4kS-8" edge="1">
          <mxGeometry relative="1" as="geometry" />
        </mxCell>
        <mxCell id="g4TBFu642CuOUHY3i4kS-11" value="&lt;&lt;component&gt;&gt;&#xa;buyingStock" style="shape=module;align=left;spacingLeft=20;align=center;verticalAlign=middle;fillStyle=auto;horizontal=1;" parent="1" vertex="1">
          <mxGeometry x="450" y="350" width="150" height="60" as="geometry" />
        </mxCell>
        <mxCell id="g4TBFu642CuOUHY3i4kS-13" style="edgeStyle=orthogonalEdgeStyle;rounded=0;orthogonalLoop=1;jettySize=auto;html=1;dashed=1;entryX=0;entryY=0;entryDx=0;entryDy=35;entryPerimeter=0;" parent="1" target="g4TBFu642CuOUHY3i4kS-14" edge="1">
          <mxGeometry relative="1" as="geometry">
            <mxPoint x="360" y="320" as="sourcePoint" />
            <Array as="points">
              <mxPoint x="360" y="265" />
            </Array>
          </mxGeometry>
        </mxCell>
        <mxCell id="g4TBFu642CuOUHY3i4kS-14" value="&lt;&lt;component&gt;&gt;&#xa;Stock" style="shape=module;align=left;spacingLeft=20;align=center;verticalAlign=middle;fillStyle=auto;horizontal=1;" parent="1" vertex="1">
          <mxGeometry x="450" y="230" width="150" height="60" as="geometry" />
        </mxCell>
        <mxCell id="g4TBFu642CuOUHY3i4kS-17" value="" style="ellipse;html=1;fillStyle=auto;" parent="1" vertex="1">
          <mxGeometry x="390" y="470" width="30" height="30" as="geometry" />
        </mxCell>
        <mxCell id="g4TBFu642CuOUHY3i4kS-18" style="edgeStyle=orthogonalEdgeStyle;rounded=0;orthogonalLoop=1;jettySize=auto;html=1;exitX=0;exitY=0;exitDx=0;exitDy=15;exitPerimeter=0;dashed=1;" parent="1" edge="1">
          <mxGeometry relative="1" as="geometry">
            <mxPoint x="420" y="365.0526315789475" as="targetPoint" />
            <mxPoint x="450" y="365" as="sourcePoint" />
          </mxGeometry>
        </mxCell>
        <mxCell id="g4TBFu642CuOUHY3i4kS-19" value="" style="ellipse;html=1;fillStyle=auto;" parent="1" vertex="1">
          <mxGeometry x="390" y="350" width="30" height="30" as="geometry" />
        </mxCell>
        <mxCell id="g4TBFu642CuOUHY3i4kS-20" style="edgeStyle=orthogonalEdgeStyle;rounded=0;orthogonalLoop=1;jettySize=auto;html=1;exitX=0;exitY=0;exitDx=0;exitDy=15;exitPerimeter=0;dashed=1;entryX=1;entryY=0.5;entryDx=0;entryDy=0;" parent="1" target="g4TBFu642CuOUHY3i4kS-21" edge="1">
          <mxGeometry relative="1" as="geometry">
            <mxPoint x="420" y="245.0526315789475" as="targetPoint" />
            <mxPoint x="450" y="245" as="sourcePoint" />
          </mxGeometry>
        </mxCell>
        <mxCell id="g4TBFu642CuOUHY3i4kS-21" value="" style="ellipse;html=1;fillStyle=auto;" parent="1" vertex="1">
          <mxGeometry x="380" y="210" width="30" height="30" as="geometry" />
        </mxCell>
        <mxCell id="g4TBFu642CuOUHY3i4kS-24" value="&lt;font style=&quot;font-size: 9px;&quot;&gt;Data access&lt;/font&gt;" style="text;html=1;align=center;verticalAlign=middle;resizable=0;points=[];autosize=1;strokeColor=none;fillColor=none;" parent="1" vertex="1">
          <mxGeometry x="370" y="440" width="70" height="30" as="geometry" />
        </mxCell>
        <mxCell id="g4TBFu642CuOUHY3i4kS-25" value="&lt;font style=&quot;font-size: 9px;&quot;&gt;Data access&lt;/font&gt;" style="text;html=1;align=center;verticalAlign=middle;resizable=0;points=[];autosize=1;strokeColor=none;fillColor=none;" parent="1" vertex="1">
          <mxGeometry x="370" y="320" width="70" height="30" as="geometry" />
        </mxCell>
        <mxCell id="g4TBFu642CuOUHY3i4kS-26" value="&lt;font style=&quot;font-size: 9px;&quot;&gt;Data access&lt;/font&gt;" style="text;html=1;align=center;verticalAlign=middle;resizable=0;points=[];autosize=1;strokeColor=none;fillColor=none;" parent="1" vertex="1">
          <mxGeometry x="360" y="180" width="70" height="30" as="geometry" />
        </mxCell>
        <mxCell id="g4TBFu642CuOUHY3i4kS-52" style="edgeStyle=orthogonalEdgeStyle;rounded=0;orthogonalLoop=1;jettySize=auto;html=1;startArrow=none;" parent="1" source="g4TBFu642CuOUHY3i4kS-54" edge="1">
          <mxGeometry relative="1" as="geometry">
            <mxPoint x="1019.9999999999998" y="530" as="targetPoint" />
          </mxGeometry>
        </mxCell>
        <mxCell id="g4TBFu642CuOUHY3i4kS-51" value="Persistence" style="shape=module;align=left;spacingLeft=20;align=center;verticalAlign=middle;fillStyle=auto;horizontal=1;" parent="1" vertex="1">
          <mxGeometry x="790" y="410" width="150" height="60" as="geometry" />
        </mxCell>
        <mxCell id="g4TBFu642CuOUHY3i4kS-53" value="&lt;&lt;component&gt;&gt;&#xa;inventoryDB" style="shape=module;align=left;spacingLeft=20;align=center;verticalAlign=middle;fillStyle=auto;horizontal=1;" parent="1" vertex="1">
          <mxGeometry x="940" y="530" width="150" height="60" as="geometry" />
        </mxCell>
        <mxCell id="g4TBFu642CuOUHY3i4kS-55" value="" style="edgeStyle=orthogonalEdgeStyle;rounded=0;orthogonalLoop=1;jettySize=auto;html=1;endArrow=none;" parent="1" source="g4TBFu642CuOUHY3i4kS-51" target="g4TBFu642CuOUHY3i4kS-54" edge="1">
          <mxGeometry relative="1" as="geometry">
            <mxPoint x="1019.9999999999998" y="530" as="targetPoint" />
            <mxPoint x="939.9999999999998" y="440.0344827586208" as="sourcePoint" />
          </mxGeometry>
        </mxCell>
        <mxCell id="g4TBFu642CuOUHY3i4kS-54" value="" style="shape=providedRequiredInterface;html=1;verticalLabelPosition=bottom;sketch=0;fontSize=9;direction=south;" parent="1" vertex="1">
          <mxGeometry x="1010" y="475" width="20" height="20" as="geometry" />
        </mxCell>
        <mxCell id="g4TBFu642CuOUHY3i4kS-61" value="" style="edgeStyle=orthogonalEdgeStyle;rounded=0;orthogonalLoop=1;jettySize=auto;html=1;exitX=0;exitY=0;exitDx=0;exitDy=15;exitPerimeter=0;entryX=0;entryY=0.5;entryDx=0;entryDy=0;entryPerimeter=0;endArrow=none;" parent="1" target="g4TBFu642CuOUHY3i4kS-60" edge="1">
          <mxGeometry relative="1" as="geometry">
            <mxPoint x="790" y="425" as="targetPoint" />
            <mxPoint x="620" y="425" as="sourcePoint" />
          </mxGeometry>
        </mxCell>
        <mxCell id="g4TBFu642CuOUHY3i4kS-62" style="edgeStyle=orthogonalEdgeStyle;rounded=0;orthogonalLoop=1;jettySize=auto;html=1;entryX=0;entryY=0;entryDx=0;entryDy=15;entryPerimeter=0;" parent="1" source="g4TBFu642CuOUHY3i4kS-60" target="g4TBFu642CuOUHY3i4kS-51" edge="1">
          <mxGeometry relative="1" as="geometry" />
        </mxCell>
        <mxCell id="g4TBFu642CuOUHY3i4kS-64" value="Encryption" style="edgeLabel;html=1;align=center;verticalAlign=middle;resizable=0;points=[];" parent="g4TBFu642CuOUHY3i4kS-62" vertex="1" connectable="0">
          <mxGeometry x="-0.2518" relative="1" as="geometry">
            <mxPoint as="offset" />
          </mxGeometry>
        </mxCell>
        <mxCell id="g4TBFu642CuOUHY3i4kS-60" value="" style="shape=providedRequiredInterface;html=1;verticalLabelPosition=bottom;sketch=0;fontSize=9;direction=east;" parent="1" vertex="1">
          <mxGeometry x="660" y="410" width="20" height="20" as="geometry" />
        </mxCell>
        <mxCell id="g4TBFu642CuOUHY3i4kS-72" value="" style="edgeStyle=orthogonalEdgeStyle;rounded=0;orthogonalLoop=1;jettySize=auto;html=1;exitX=0;exitY=0;exitDx=0;exitDy=15;exitPerimeter=0;entryX=0;entryY=0.5;entryDx=0;entryDy=0;entryPerimeter=0;endArrow=none;" parent="1" target="g4TBFu642CuOUHY3i4kS-75" edge="1">
          <mxGeometry relative="1" as="geometry">
            <mxPoint x="790" y="445" as="targetPoint" />
            <mxPoint x="620" y="445" as="sourcePoint" />
          </mxGeometry>
        </mxCell>
        <mxCell id="g4TBFu642CuOUHY3i4kS-73" style="edgeStyle=orthogonalEdgeStyle;rounded=0;orthogonalLoop=1;jettySize=auto;html=1;entryX=0;entryY=0;entryDx=0;entryDy=15;entryPerimeter=0;" parent="1" source="g4TBFu642CuOUHY3i4kS-75" edge="1">
          <mxGeometry relative="1" as="geometry">
            <mxPoint x="790" y="445" as="targetPoint" />
          </mxGeometry>
        </mxCell>
        <mxCell id="g4TBFu642CuOUHY3i4kS-74" value="Access control" style="edgeLabel;html=1;align=center;verticalAlign=middle;resizable=0;points=[];" parent="g4TBFu642CuOUHY3i4kS-73" vertex="1" connectable="0">
          <mxGeometry x="-0.2518" relative="1" as="geometry">
            <mxPoint x="7" as="offset" />
          </mxGeometry>
        </mxCell>
        <mxCell id="g4TBFu642CuOUHY3i4kS-75" value="" style="shape=providedRequiredInterface;html=1;verticalLabelPosition=bottom;sketch=0;fontSize=9;direction=east;" parent="1" vertex="1">
          <mxGeometry x="660" y="430" width="20" height="20" as="geometry" />
        </mxCell>
      </root>
    </mxGraphModel>
  </diagram>
</mxfile>
